<svg width="555" height="608" viewBox="0 0 555 608" fill="none" xmlns="http://www.w3.org/2000/svg">
<rect width="555" height="608" fill="#E41B23"/>
<rect width="535" height="589" transform="translate(10 9)" fill="#E41B23"/>
<path d="M529.663 9H25.3367C17.49 9.89242 10.8917 16.4964 10 24.3497V582.65C10.8917 590.504 17.49 597.108 25.3367 598H529.663C537.51 597.108 544.108 590.504 545 582.65V24.3497C544.108 16.4964 537.51 9.89242 529.663 9Z" fill="#E41B23"/>
<path d="M173.888 331.879C193.148 315.458 210.447 295.825 221.503 272.801C228.28 258.343 233.63 243.351 236.305 227.644C240.05 204.976 241.477 181.952 242.725 158.927C243.438 143.042 243.795 127.157 243.795 111.093V53.7997H219.363C219.363 63.2594 219.363 72.7191 219.363 82.1788C218.65 110.201 217.045 138.223 212.765 165.888C209.377 187.663 204.562 209.438 195.467 229.429C187.62 246.92 177.455 263.519 164.615 277.62C152.132 291.541 137.33 303.143 120.923 311.889C107.013 319.207 92.0333 324.74 76.5183 327.06V375.072C89.3583 373.288 102.02 370.075 114.325 365.791C135.725 358.295 156.59 347.229 173.888 331.879Z" fill="white"/>
<path d="M253.247 272.801C253.247 306.891 253.068 341.16 253.425 375.251C268.227 375.072 283.207 375.251 298.187 375.251V53.9782C283.207 53.9782 268.227 53.9782 253.247 53.9782C253.247 126.8 253.247 199.8 253.247 272.801Z" fill="white"/>
<path d="M456.012 322.598C433.542 315.28 412.855 302.965 395.735 286.544C377.902 269.588 364.17 248.348 354.718 225.681C344.732 202.121 340.273 176.776 337.063 151.609C333.14 119.125 332.07 86.4624 332.248 53.7997H307.995V106.453C307.817 137.509 308.887 168.565 311.562 199.443C312.988 213.722 314.593 228.179 318.338 242.101C322.083 256.023 327.612 269.409 334.745 282.082C343.84 298.145 355.967 312.424 369.52 325.097C377.723 332.593 386.283 339.911 395.735 345.979C408.575 354.368 422.663 360.972 437.287 365.97C449.592 370.075 462.075 373.466 474.915 375.072C474.915 359.009 474.915 343.124 474.915 327.06C468.673 326.168 462.253 324.561 456.012 322.598Z" fill="white"/>
<path d="M249 428.137V409H178V428.137C186.703 428.137 195.406 428.137 204.11 428.137V534H222.89V428.137C231.594 428.137 240.297 428.137 249 428.137Z" fill="white"/>
<path d="M389.735 482.056C393.374 479.322 397.62 477.499 400.956 474.462C407.476 468.842 410.964 460.488 411.57 452.135C412.177 443.781 412.177 435.58 408.386 428.289C402.927 417.05 391.1 409.304 378.514 409H356.225C354.253 409 352.434 409.152 350.614 409.759C344.549 411.734 340 417.809 340 424.188C340 460.792 340 497.396 340 534H358.802C358.802 499.978 358.802 465.956 358.802 431.934C358.954 429.656 360.774 427.834 363.048 427.834H377.453C384.428 427.53 390.948 432.998 392.464 439.68C393.678 444.844 393.829 450.768 391.1 455.476C387.461 461.855 380.789 465.804 374.117 468.386C370.63 469.753 367.445 472.335 366.081 475.981C364.413 480.841 365.171 486.157 368.052 490.258C377.605 504.687 387.157 519.267 396.862 533.848H419C408.992 518.812 398.681 503.775 388.825 488.587C387.612 486.461 387.764 483.575 389.735 482.056Z" fill="white"/>
<path d="M286.142 409.464C280.224 407.947 274.002 410.222 270.359 415.228C268.235 418.11 267.78 421.751 266.717 424.936C256.094 461.341 245.623 497.747 235 534H254.425C257.46 523.534 260.495 513.067 263.53 502.601C276.126 502.601 288.722 502.601 301.318 502.601C304.353 513.067 307.388 523.534 310.423 534C316.949 534 323.474 534 330 534C318.922 496.078 307.995 458.156 296.917 420.234C295.551 415.228 291.454 410.677 286.142 409.464ZM268.842 484.853C273.395 469.077 277.947 453.302 282.5 437.526C287.053 453.302 291.605 469.077 296.158 484.853H268.842Z" fill="white"/>
<path d="M154.818 412.285C148.909 407.132 138.909 408.193 133.909 414.407C131.182 417.439 130.727 421.683 129.515 425.472C118.909 461.699 108.455 497.774 98 534H117.394C120.424 523.541 123.455 513.083 126.636 502.624H164.364C167.394 513.083 170.424 523.541 173.455 534H193C181.939 496.106 170.879 458.212 159.818 420.319C159.061 417.136 157.242 414.407 154.818 412.285ZM131.788 484.738C136.333 468.974 140.879 453.21 145.576 437.598C150.121 453.362 154.667 469.126 159.212 484.738C149.97 484.738 140.879 484.89 131.788 484.738Z" fill="white"/>
<path d="M429 514V409H449V506.5C449 512.023 453.477 516.5 459 516.5H462C467.523 516.5 472 512.023 472 506.5V409H492V514C492 525.046 483.046 534 472 534H449C437.954 534 429 525.046 429 514Z" fill="white"/>
<path d="M111 429.137V410H40V429.137C48.7032 429.137 57.4065 429.137 66.1097 429.137V535H84.8903V429.137C93.5935 429.137 102.297 429.137 111 429.137Z" fill="white"/>
<path d="M513.985 526.85C514.132 522.441 509.428 519.06 505.312 520.236C502.225 520.971 500.02 523.764 500.02 526.85C499.726 530.378 502.666 533.612 506.194 533.906C510.163 534.641 514.279 530.966 513.985 526.85ZM506.635 532.73C502.813 532.73 500.02 528.173 501.784 524.792C502.372 523.323 503.695 522.147 505.165 521.706C508.105 520.677 511.633 522.441 512.368 525.527C513.103 528.614 510.457 533.171 506.635 532.73Z" fill="white"/>
<path d="M509.6 523.619C507.889 522.535 505.867 523.31 504 523V530.897H505.4C505.4 529.658 505.4 528.574 505.556 527.336C506.178 527.49 506.956 527.645 507.422 527.955C508.511 529.194 508.822 531.516 511 530.897C510.378 529.658 509.444 528.419 508.511 527.336C510.067 527.026 511 525.013 509.6 523.619ZM505.4 526.561V524.239C506.489 524.394 508.044 523.929 508.667 525.013C508.667 525.168 508.822 525.168 508.822 525.323C508.667 526.871 506.489 526.407 505.4 526.561Z" fill="white"/>
</svg>
